<svg xmlns="http://www.w3.org/2000/svg" width="32" height="32">
	<style>
    .border {
      fill: #EDEDED;
    }

    .background {
      fill: #38066E;
    }

    .text {
      fill: #F42F70;
    }

    .dotoni {
      fill: #F0FF00;
    }

    .shadow {
      fill: #000000;
      fill-opacity: 0.25;
    }

    .highlight {
      fill: #FFFFFF;
      fill-opacity: 0.65;
    }
	</style>

  <svg class="border">
    <polygon transform="translate(7,2)" points="0,5 0,23 1,24 2,24 2,25 3,26 7,26 8,25 8,24 10,24 10,25 11,26 15,26 16,25 16,24 17,24 18,23 18,19 17,18 16,18 16,17 15,16 16,15 16,14 17,14 18,13 18,9 17,8 16,8 16,7 15,6 11,6 10,7 10,5 9,4 8,4 8,3 7,2 3,2 2,3 2,4 1,4" />
	</svg>

  <svg class="background">
    <polygon transform="translate(7,2)" points="1,5 1,23 3,23 3,25 7,25 7,23 11,23 11,25 15,25 15,23 17,23 17,19 15,19 15,17 13,17 13,15 15,15 15,13 17,13 17,9  15,9 15,7 11,7 11,9 9,9 9,5 7,5 7,3 3,3 3,5" />
	</svg>

	<svg class="text">
    <polygon transform="translate(7,2)" points="3,5 3,23 8,23 8,19 9,19 9,21 11,21 11,23 16,23 16,19 14,19 14,17 12,17 12,15 14,15 14,13 16,13 16,9 11,9 11,11 9,11 9,13 8,13 8,5" />
  </svg>

  <svg class="shadow">
    <polygon transform="translate(7,2)" points="7,5 7,13 8,13 8,5" />
    <polygon transform="translate(7,2)" points="7,19 7,23 8,23 8,19" />
    <polygon transform="translate(7,2)" points="11,15 11,17 12,17 12,15" />
    <polygon transform="translate(7,2)" points="13,13 13,15 14,15 14,13" />
    <polygon transform="translate(7,2)" points="13,17 13,19 14,19 14,17" />
    <polygon transform="translate(7,2)" points="15,9 15,13 16,13 16,9" />
    <polygon transform="translate(7,2)" points="15,19 15,23 16,23 16,19" />
  </svg>

  <svg class="highlight">
    <polygon transform="translate(7,2)" points="3,5 3,6 7,6 7,5" />
    <polygon transform="translate(7,2)" points="11,9 11,10 15,10 15,9" />
  </svg>
</svg>
