<svg xmlns="http://www.w3.org/2000/svg" width="126" height="26">
	<style>
        .border {
            fill: #EDEDED;
        }

        .background {
            fill: #38066E;
        }

		.text {
			fill: #F42F70;
		}

        .dotoni {
            fill: #F0FF00;
        }

        .shadow {
            fill: #000000;
            fill-opacity: 0.25;
        }

        .highlight {
            fill: #FFFFFF;
            fill-opacity: 0.65;
        }
	</style>

    <svg class="border">
        <polygon points="0,5 0,23 1,24 2,24 2,25 3,26 7,26 8,25 8,24 10,24 10,25 11,26 15,26 16,25 17,26 21,26 22,25 22,24 24,24 24,25 25,26 33,26 34,25 34,24 36,24 36,25 37,26 49,26 50,25 51,26 55,26 56,25 56,24 58,24 58,25 59,26 63,26 64,25 65,26 69,26 70,25 71,26 75,26 76,25 76,24 77,24 78,23 79,24 80,24 80,25 81,26 85,26 86,25 86,24 87,24 88,23 89,24 90,24 90,25 91,26 95,26 96,25 97,26 109,26 110,25 111,26 121,26 122,25 122,24 123,24 124,23 124,22 125,22 126,21 126,13 125,12 124,12 124,11 123,10 122,10 122,9 121,8 118,8 118,5 117,4 116,4 116,3 115,2 111,2 110,3 110,4 109,4 108,5 108,7 107,6 99,6 98,7 98,3 97,2 96,2 96,1 95,0 91,0 90,1 90,2 89,2 88,3 88,6 85,6 84,7 84,8 82,8 82,7 81,6 76,6 76,5 75,4 72,4 72,3 71,2 70,2 70,1 69,0 65,0 64,1 64,2 63,2 62,3 62,6 59,6 58,7 58,5 57,4 56,4 56,3 55,2 51,2 50,3 50,4 49,4 48,5 48,7 47,6 39,6 38,7 38,8 37,8 36,9 35,8 34,8 34,7 33,6 27,6 26,7 25,6 19,6 18,7 18,8 16,8 16,7 15,6 11,6 10,7 10,5 9,4 8,4 8,3 7,2 3,2 2,3 2,4 1,4" />
	</svg>
    
    <svg class="background">
        <polygon points="1,5 1,23 3,23 3,25 7,25 7,23 11,23 11,25 15,25 15,23 17,23 17,25 21,25 21,23 25,23 25,25 33,25 33,23 37,23 37,25 49,25 49,23 51,23 51,25 55,25 55,23 59,23 59,25 63,25 63,23 65,23 65,25 69,25 69,23 71,23 71,25 75,25 75,23 77,23 77,21 79,21 79,23 81,23 81,25 85,25 85,23 87,23 87,21 89,21 89,23 91,23 91,25 95,25 95,23 97,23 97,25 109,25 109,23 111,23 111,25 121,25 121,23 123,23 123,21 125,21 125,13 123,13 123,11 121,11 121,9 117,9 117,5 115,5 115,3 111,3 111,5 109,5 109,9 107,9 107,7 99,7 99,9 97,9 97,3 95,3 95,1 91,1 91,3 89,3 89,7 85,7 85,9 81,9 81,7 75,7 75,5 71,5 71,3 69,3 69,1 65,1 65,3 63,3 63,7 59,7 59,9 57,9 57,5 55,5 55,3 51,3 51,5 49,5 49,9 47,9 47,7 39,7 39,9 37,9 37,11 35,11 35,9 33,9 33,7 27,7 27,9 25,9 25,7 19,7 19,9 15,9 15,7 11,7 11,9 9,9 9,5 7,5 7,3 3,3 3,5" />
	</svg>

	<svg class="text">
        <polygon points="3,5 3,23 8,23 8,19 9,19 9,21 11,21 11,23 16,23 16,19 14,19 14,17 12,17 12,15 14,15 14,13 16,13 16,9 11,9 11,11 9,11 9,13 8,13 8,5" />
        <polygon points="17,11 17,23 22,23 22,13 24,13 24,11 26,11 26,9 19,9 19,11" />
        <polygon points="23,13 23,21 25,21 25,23 34,23 34,21 36,21 36,19 28,19 28,13 31,13 31,15 28,15 28,17 36,17 36,11 34,11 34,9 27,9 27,11 25,11 25,13" />
        <polygon points="37,11 37,13 47,13 47,15 45,15 45,19 42,19 42,17 45,17 45,15 39,15 39,17 37,17 37,23 50,23 50,11 48,11 48,9 39,9 39,11" />
        <polygon points="51,5 51,23 56,23 56,19 57,19 57,21 59,21 59,23 64,23 64,19 62,19 62,17 60,17 60,15 62,15 62,13 64,13 64,11 65,11 65,23 70,23 70,11 71,11 71,7 70,7 70,3 65,3 65,7 63,7 63,9 59,9 59,11 57,11 57,13 56,13 56,5" />
        <polygon class="dotoni" points="71,7 71,11 76,11 76,7" />
        <polygon points="71,13 71,23 76,23 76,13" />
        <polygon points="77,9 77,19 79,19 79,21 81,21 81,23 86,23 86,21 88,21 88,19 90,19 90,9 85,9 85,19 82,19 82,9" />
        <polygon points="91,3 91,23 96,23 96,3" />
        <polygon points="97,11 97,13 107,13 107,15 105,15 105,19 102,19 102,17 105,17 105,15 99,15 99,17 97,17 97,23 110,23 110,11 108,11 108,9 99,9 99,11" />
        <polygon points="111,5 111,23 122,23 122,21 124,21 124,13 122,13 122,11 116,11 116,15 119,15 119,19 116,19 116,5" />
    </svg>

    <svg class="shadow">
        <polygon points="7,5 7,13 8,13 8,5" />
        <polygon points="7,19 7,23 8,23 8,19" />
        <polygon points="11,15 11,17 12,17 12,15" />
        <polygon points="13,13 13,15 14,15 14,13" />
        <polygon points="13,17 13,19 14,19 14,17" />
        <polygon points="15,9 15,13 16,13 16,9" />
        <polygon points="15,19 15,23 16,23 16,19" />

        <polygon points="21,13 21,23 22,23 22,13" />
        <polygon points="23,11 23,13 24,13 24,11" />
        <polygon points="25,9 25,11 26,11 26,9" />
        
        <polygon points="27,13 27,15 28,15 28,13" />
        <polygon points="27,17 27,19 28,19 28,17" />
        <polygon points="33,9 33,11 34,11 34,9" />
        <polygon points="33,21 33,23 34,23 34,21" />
        <polygon points="35,11 35,17 36,17 36,11" />
        <polygon points="35,19 35,21 36,21 36,19" />
        
        <polygon points="41,17 41,19 42,19 42,17" />
        <polygon points="47,9 47,11 48,11 48,9" />
        <polygon points="49,11 49,23 50,23 50,11" />

        <polygon points="55,5 55,13 56,13 56,5" />
        <polygon points="55,19 55,23 56,23 56,19" />
        <polygon points="59,15 59,17 60,17 60,15" />
        <polygon points="61,13 61,15 62,15 62,13" />
        <polygon points="61,17 61,19 62,19 62,17" />
        <polygon points="63,11 63,13 64,13 64,11" />
        <polygon points="63,19 63,23 64,23 64,19" />

        <polygon points="69,3 69,7 70,7 70,3" />
        <polygon points="69,11 69,23 70,23 70,11" />

        <polygon class="dotonibody" points="75,7 75,11 76,11 76,7" />
        <polygon points="75,13 75,23 76,23 76,13" />

        <polygon points="81,9 81,19 82,19 82,9" />
        <polygon points="85,21 85,23 86,23 86,21" />
        <polygon points="87,19 87,21 88,21 88,19" />
        <polygon points="89,9 89,19 90,19 90,9" />

        <polygon points="95,3 95,23 96,23 96,3" />

        <polygon points="101,17 101,19 102,19 102,17" />
        <polygon points="107,9 107,11 108,11 108,9" />
        <polygon points="109,11 109,23 110,23 110,11" />

        <polygon points="115,5 115,11 116,11 116,5" />
        <polygon points="115,15 115,19 116,19 116,15" />
        <polygon points="121,11 121,13 122,13 122,11" />
        <polygon points="121,21 121,23 122,23 122,21" />
        <polygon points="123,13 123,21 124,21 124,13" />
    </svg>

    <svg class="highlight">
        <polygon points="3,5 3,6 7,6 7,5" />
        <polygon points="11,9 11,10 15,10 15,9" />
        <polygon points="19,9 19,10 25,10 25,9" />
        <polygon points="27,9 27,10 33,10 33,9" />
        <polygon points="39,9 39,10 47,10 47,9" />
        <polygon points="51,5 51,6 55,6 55,5" />
        <polygon points="59,9 59,10 63,10 63,9" />
        <polygon points="63,7 63,8 65,8 65,7" />
        <polygon points="65,3 65,4 69,4 69,3" />
        <polygon points="69,7 69,8 71,8 71,7" />
        <polygon points="71,7 71,8 75,8 75,7" />
        <polygon points="77,9 77,10 81,10 81,9" />
        <polygon points="85,9 85,10 89,10 89,9" />
        <polygon points="91,3 91,4 95,4 95,3" />
        <polygon points="99,9 99,10 107,10 107,9" />
        <polygon points="111,5 111,6 115,6 115,5" />
        <polygon points="115,11 115,12 121,12 121,11" />
    </svg>
</svg>